<svg xmlns="http://www.w3.org/2000/svg" version="1.1" xmlns:xlink="http://www.w3.org/1999/xlink" xmlns:svgjs="http://svgjs.dev/svgjs" width="1500" height="935" viewBox="0 0 1500 935"><g transform="matrix(1,0,0,1,-0.9090909090909918,0.3785425101214628)"><svg viewBox="0 0 396 247" data-background-color="#0a1627" preserveAspectRatio="xMidYMid meet" height="935" width="1500" xmlns="http://www.w3.org/2000/svg" xmlns:xlink="http://www.w3.org/1999/xlink"><g id="tight-bounds" transform="matrix(1,0,0,1,0.2400000000000091,-0.09999999999999432)"><svg viewBox="0 0 395.52 247.2" height="247.2" width="395.52"><g><svg></svg></g><g><svg viewBox="0 0 395.52 247.2" height="247.2" width="395.52"><g transform="matrix(1,0,0,1,133.32014814814815,47.215199999999996)"><svg viewBox="0 0 128.87970370370368 152.7696" height="152.7696" width="128.87970370370368"><g><svg viewBox="0 0 128.87970370370368 152.7696" height="152.7696" width="128.87970370370368"><g><svg viewBox="0 0 128.87970370370368 152.7696" height="152.7696" width="128.87970370370368"><g><svg viewBox="0 0 128.87970370370368 152.7696" height="152.7696" width="128.87970370370368"><g id="textblocktransform"><svg viewBox="0 0 128.87970370370368 152.7696" height="152.7696" width="128.87970370370368" id="textblock"><g><svg viewBox="0 0 128.87970370370368 152.7696" height="152.7696" width="128.87970370370368"><g transform="matrix(1,0,0,1,0,0)"><svg width="128.87970370370368" viewBox="1.75 -35.55 30.75 36.449999999999996" height="152.7696" data-palette-color="#fe0039"><path d="M15.65-15.6L10.6-15.9 11.1-2.5 15.95-1.5 15.7 0.5 8.6 0 1.75 0.5 1.85-1.5 6-2.5 6.35-15.3 6.1-32.5 2-33.5 2.25-35.5 8.35-35 15.05-35.55 19.15-35.25 23.2-33.95 27.15-30.95 28.4-25.8 27.5-20.25 24.45-18.05 21.15-17.1 28.3-1.95 32.2-1.95 32.5-0.3 26.65 0.9 23.4-1.75 17.2-16 15.65-15.6ZM18.25-33.2L10.95-32.75 10.65-18.1 15.05-17.85 21.8-20.4 23.25-24.75 22.2-29.35 18.25-33.2Z" opacity="1" transform="matrix(1,0,0,1,0,0)" fill="#fe0039" class="wordmark-text-0" data-fill-palette-color="primary" id="text-0"></path></svg></g></svg></g></svg></g></svg></g></svg></g></svg></g></svg></g><g><path d="M188.04 0c30.402 0 58.24 10.976 79.768 29.183l-11.147 0c-19.26-14.022-42.974-22.294-68.621-22.295-25.647 0-49.361 8.272-68.621 22.295l-11.147 0c21.528-18.206 49.366-29.183 79.768-29.183zM188.04 247.2c-30.402 0-58.24-10.976-79.768-29.183l11.147 0c19.26 14.022 42.974 22.294 68.621 22.295 25.647 0 49.361-8.272 68.621-22.295l11.147 0c-21.528 18.206-49.366 29.183-79.768 29.183z" fill="#fe0039" stroke="transparent" data-fill-palette-color="tertiary"></path></g></svg></g><defs></defs></svg><rect width="395.52" height="247.2" fill="none" stroke="none" visibility="hidden"></rect></g></svg></g></svg>